<?xml version="1.0" encoding="utf-8"?>
<!-- Generator: Adobe Illustrator 15.0.0, SVG Export Plug-In . SVG Version: 6.00 Build 0)  -->
<!DOCTYPE svg PUBLIC "-//W3C//DTD SVG 1.1//EN" "http://www.w3.org/Graphics/SVG/1.1/DTD/svg11.dtd">
<svg version="1.1" id="Layer_1" xmlns="http://www.w3.org/2000/svg" xmlns:xlink="http://www.w3.org/1999/xlink" x="0px" y="0px"
	 width="226.001px" height="60.998px" viewBox="0 0 226.001 60.998" enable-background="new 0 0 226.001 60.998"
	 xml:space="preserve">
<rect x="0.001" y="-0.001" fill="#3FC910" width="225.999" height="61"/>
<g>
	<g>
		<g>
			<rect x="63.149" y="16.763" fill="#FFFFFF" width="27.474" height="27.473"/>
			<polygon fill="#3FC910" points="79.208,23.646 79.208,30.177 74.563,23.646 70.03,23.646 70.03,36.552 74.563,36.552 
				74.563,30.017 79.208,36.552 83.739,36.552 83.739,23.646 			"/>
		</g>
	</g>
	<g>
		<path fill="#FFFFFF" d="M108.724,30.009c0.154-0.965,0.279-1.908,0.375-2.832c0.095-0.922,0.143-1.705,0.143-2.348h-8.661v-1.893
			h10.911c0,1.215-0.057,2.445-0.17,3.695s-0.247,2.377-0.401,3.377h2.732v1.875h-6.394v6.803h-2.25v-6.803H98.33v-1.875H108.724z"
			/>
		<path fill="#FFFFFF" d="M122.581,34.366h-6.536V23.614h6.536V34.366z M120.51,32.544v-7.125h-2.375v7.125H120.51z M129.261,38.776
			h-2.107v-9.055h-1.215v8.645h-2.071V22.399h2.071v5.465h1.215v-5.643h2.107V38.776z"/>
		<path fill="#FFFFFF" d="M132.171,27.507v-1.838h10.251v1.838H132.171z M133.207,31.829c0-0.477,0.092-0.938,0.276-1.383
			c0.185-0.447,0.449-0.838,0.795-1.17c0.345-0.334,0.773-0.602,1.285-0.805c0.512-0.201,1.096-0.303,1.75-0.303
			c0.655,0,1.238,0.104,1.751,0.313c0.512,0.209,0.94,0.482,1.285,0.82c0.346,0.34,0.61,0.73,0.795,1.17
			c0.185,0.441,0.276,0.893,0.276,1.357c0,0.477-0.092,0.936-0.276,1.375c-0.185,0.441-0.452,0.83-0.804,1.17
			s-0.78,0.611-1.286,0.813c-0.506,0.203-1.086,0.305-1.741,0.305c-0.654,0-1.238-0.105-1.75-0.313
			c-0.512-0.209-0.94-0.482-1.285-0.822c-0.346-0.34-0.61-0.729-0.795-1.17C133.299,32.747,133.207,32.294,133.207,31.829z
			 M134.313,24.669v-1.895h5.947v1.895H134.313z M139.261,31.829c0-0.25-0.042-0.488-0.125-0.715
			c-0.084-0.225-0.209-0.424-0.375-0.598c-0.167-0.172-0.372-0.313-0.616-0.42s-0.521-0.16-0.831-0.16s-0.586,0.053-0.83,0.16
			s-0.449,0.248-0.616,0.42c-0.167,0.174-0.292,0.373-0.375,0.598c-0.083,0.227-0.125,0.465-0.125,0.715s0.042,0.488,0.125,0.715
			s0.208,0.426,0.375,0.598c0.167,0.174,0.372,0.311,0.616,0.412c0.244,0.1,0.521,0.15,0.83,0.15s0.587-0.051,0.831-0.15
			c0.244-0.102,0.449-0.238,0.616-0.412c0.166-0.172,0.291-0.371,0.375-0.598C139.219,32.317,139.261,32.079,139.261,31.829z
			 M147.779,30.759h-2.554v7.965h-2.215V22.222h2.215v6.68h2.554V30.759z"/>
		<path fill="#FFFFFF" d="M149.118,33.847c1.119-0.535,2.081-1.127,2.885-1.775c0.804-0.65,1.473-1.334,2.009-2.055
			s0.949-1.467,1.241-2.24c0.292-0.775,0.485-1.549,0.58-2.322c-1.321,0.035-2.643,0.053-3.964,0.053h-1.894v-1.893h2.84
			c0.845,0,1.705,0,2.58,0s1.818-0.012,2.831-0.035c-0.084,1.285-0.28,2.494-0.59,3.625s-0.768,2.188-1.375,3.17
			s-1.375,1.891-2.304,2.723c-0.929,0.834-2.048,1.602-3.357,2.305L149.118,33.847z M160.637,22.222h2.215v16.555h-2.215V22.222z"/>
	</g>
</g>
</svg>
