<?xml version="1.0" encoding="utf-8"?>
<!-- Generator: Adobe Illustrator 15.0.0, SVG Export Plug-In . SVG Version: 6.00 Build 0)  -->
<!DOCTYPE svg PUBLIC "-//W3C//DTD SVG 1.1//EN" "http://www.w3.org/Graphics/SVG/1.1/DTD/svg11.dtd">
<svg version="1.1" id="Layer_1" xmlns="http://www.w3.org/2000/svg" xmlns:xlink="http://www.w3.org/1999/xlink" x="0px" y="0px"
	 width="28.35px" height="28.35px" viewBox="0 0 28.35 28.35" enable-background="new 0 0 28.35 28.35" xml:space="preserve">
<path fill="#6D6E71" d="M18.81,17.237c0.435,0.434,0.435,1.139,0,1.572c-0.218,0.218-0.502,0.327-0.786,0.327
	c-0.283,0-0.568-0.109-0.786-0.327l-3.064-3.062l-3.061,3.062c-0.218,0.218-0.503,0.327-0.786,0.327
	c-0.286,0-0.569-0.109-0.787-0.327c-0.434-0.434-0.434-1.139,0-1.572l3.062-3.063L9.54,11.111c-0.434-0.435-0.434-1.136,0-1.572
	c0.435-0.434,1.138-0.434,1.573,0l3.061,3.063l3.064-3.063c0.434-0.434,1.139-0.434,1.572,0c0.435,0.436,0.435,1.138,0,1.572
	l-3.063,3.063L18.81,17.237z"/>
<path fill="#6D6E71" d="M14.175,1.771c6.84,0,12.404,5.564,12.404,12.404c0,6.84-5.564,12.404-12.404,12.404
	c-6.839,0-12.404-5.564-12.404-12.404C1.771,7.335,7.335,1.771,14.175,1.771 M14.175,0.354c-7.633,0-13.821,6.188-13.821,13.821
	c0,7.634,6.188,13.821,13.821,13.821c7.634,0,13.821-6.188,13.821-13.821C27.996,6.542,21.809,0.354,14.175,0.354L14.175,0.354z"/>
</svg>
