<?xml version="1.0" encoding="utf-8"?>
<!-- Generator: Adobe Illustrator 15.0.0, SVG Export Plug-In . SVG Version: 6.00 Build 0)  -->
<!DOCTYPE svg PUBLIC "-//W3C//DTD SVG 1.1//EN" "http://www.w3.org/Graphics/SVG/1.1/DTD/svg11.dtd">
<svg version="1.1" id="Layer_1" xmlns="http://www.w3.org/2000/svg" xmlns:xlink="http://www.w3.org/1999/xlink" x="0px" y="0px"
	 width="283.464px" height="50.743px" viewBox="0 0 283.464 50.743" enable-background="new 0 0 283.464 50.743"
	 xml:space="preserve">
<rect x="116.749" y="0" fill="#3598D4" width="10.67" height="0"/>
<rect x="134.167" y="10.527" fill="#E9378B" width="0" height="8.658"/>
<polygon fill="#EB368C" points="134.167,19.185 134.167,10.527 127.418,10.527 127.418,10.523 116.771,19.185 "/>
<rect x="12.106" y="12.463" fill="#009CEA" width="10.67" height="30.623"/>
<rect x="0" y="1.649" fill="#009CEA" width="34.931" height="9.378"/>
<path fill="#009CEA" d="M47.996,16.052v-4.068H37.325v31.102h10.671V30.12c0.096-6.029,2.823-9.522,12.345-9.522v-9.57
	C54.598,11.027,50.532,13.037,47.996,16.052z"/>
<rect x="63.691" y="1.458" fill="#009CEA" width="10.671" height="8.135"/>
<rect x="63.691" y="11.984" fill="#009CEA" width="10.671" height="31.102"/>
<path fill="#009CEA" d="M98.718,11.028c-3.589,0-6.796,1.005-9.379,2.775v-1.818H78.668v38.758h10.671v-10.43
	c2.583,1.721,5.79,2.773,9.379,2.773c6.459,0,14.402-3.684,14.402-16.029C113.121,14.712,105.177,11.028,98.718,11.028z
	 M95.895,33.756c-3.685,0-6.556-1.865-6.556-6.699v-0.334c0.144-4.546,2.967-6.364,6.556-6.364c4.115,0,6.555,2.153,6.555,6.699
	C102.45,31.651,100.01,33.756,95.895,33.756z"/>
<path fill="#009CEA" d="M154.502,11.028c-12.488,0-17.465,7.799-17.465,16.508c0,8.709,4.977,16.508,17.465,16.508
	c12.489,0,17.466-7.799,17.466-16.508C171.968,18.827,166.992,11.028,154.502,11.028z M154.502,34.665
	c-4.689,0-7.226-2.918-7.226-7.129c0-4.21,2.536-7.129,7.226-7.129s7.226,2.919,7.226,7.129
	C161.728,31.747,159.192,34.665,154.502,34.665z"/>
<path fill="#009CEA" d="M194.89,11.028c-3.589,0-6.796,1.005-9.379,2.775v-1.818H174.84v38.758h10.671v-10.43
	c2.583,1.721,5.79,2.773,9.379,2.773c6.459,0,14.402-3.684,14.402-16.029C209.292,14.712,201.349,11.028,194.89,11.028z
	 M192.067,33.756c-3.685,0-6.556-1.865-6.556-6.699v-0.334c0.144-4.546,2.967-6.364,6.556-6.364c4.115,0,6.555,2.153,6.555,6.699
	C198.622,31.651,196.182,33.756,192.067,33.756z"/>
<path fill="#009CEA" d="M234.99,13.851c-2.584-1.771-5.838-2.823-9.378-2.823c-6.46,0-14.403,3.685-14.403,16.508
	c0,12.824,7.943,16.508,14.403,16.508c3.54,0,6.794-1.004,9.378-2.822v1.867h10.671V11.984H234.99V13.851z M228.434,34.713
	c-4.114,0-6.555-2.105-6.555-7.178c0-5.024,2.44-7.177,6.555-7.177c3.686,0,6.556,1.914,6.556,7.177
	C234.99,32.846,232.12,34.713,228.434,34.713z"/>
<polygon fill="#009CEA" points="264.42,34.665 282.029,20.406 282.029,11.984 250.448,11.984 250.448,20.406 267.099,20.406 
	249.491,34.665 249.491,43.086 283.464,43.086 283.464,34.665 "/>
<path fill="#009CEA" d="M127.419,28.014v-7.369h-10.671v9.234c0,9.811,3.589,13.207,12.823,13.207h4.595v-9.281h-2.25
	C128.423,33.805,127.419,32.799,127.419,28.014z"/>
<polygon fill="#009CEA" points="116.749,0 116.749,9.181 116.749,9.182 116.749,10.527 116.749,18.938 116.749,19.185 
	116.771,19.185 127.418,10.523 127.418,9.936 127.418,0 "/>
</svg>
