<?xml version="1.0" encoding="utf-8"?>
<!-- Generator: Adobe Illustrator 15.0.0, SVG Export Plug-In . SVG Version: 6.00 Build 0)  -->
<!DOCTYPE svg PUBLIC "-//W3C//DTD SVG 1.1//EN" "http://www.w3.org/Graphics/SVG/1.1/DTD/svg11.dtd">
<svg version="1.1" id="Layer_1" xmlns="http://www.w3.org/2000/svg" xmlns:xlink="http://www.w3.org/1999/xlink" x="0px" y="0px"
	 width="153.582px" height="59.877px" viewBox="0 0 153.582 59.877" enable-background="new 0 0 153.582 59.877"
	 xml:space="preserve">
<rect fill="#3EB54A" width="59.875" height="59.875"/>
<polygon fill="#FFFFFF" points="35,15 35,29.238 24.875,15 15,15 15,43.125 24.875,43.125 24.875,28.887 35,43.125 44.875,43.125 
	44.875,15 "/>
<g>
	<g>
		<path fill="#464646" d="M77.201,12.134h12.433c1.959,0,3.662,0.249,5.107,0.747s2.643,1.188,3.59,2.072s1.654,1.936,2.121,3.156
			c0.465,1.221,0.699,2.538,0.699,3.951v1.012c0,1.414-0.25,2.739-0.748,3.976c-0.498,1.237-1.229,2.321-2.191,3.253
			c-0.965,0.933-2.162,1.671-3.59,2.217c-1.43,0.547-3.094,0.819-4.988,0.819h-7.662v13.541h-4.771V12.134z M81.972,16.278v12.914
			h6.844c5.012,0,7.516-2.072,7.516-6.216v-0.868c0-1.991-0.602-3.461-1.807-4.409c-1.205-0.947-2.932-1.421-5.18-1.421H81.972z"/>
		<path fill="#464646" d="M113.341,47.264c-2.666,0-4.777-0.659-6.336-1.976c-1.559-1.317-2.338-3.133-2.338-5.445v-1.302
			c0-2.248,0.756-4.079,2.266-5.493c1.51-1.413,3.951-2.12,7.324-2.12h6.699v-1.542c0-1.767-0.426-3.076-1.277-3.928
			c-0.852-0.851-2.24-1.277-4.168-1.277c-1.543,0-2.885,0.241-4.023,0.723c-1.141,0.482-2.322,1.125-3.543,1.928l-2.313-3.47
			c1.285-0.898,2.73-1.678,4.336-2.337c1.607-0.658,3.471-0.987,5.59-0.987c1.479,0,2.828,0.185,4.049,0.554
			c1.221,0.37,2.271,0.916,3.156,1.639c0.883,0.723,1.574,1.606,2.072,2.65s0.746,2.225,0.746,3.542v18.456h-4.48v-3.181h-0.049
			c-0.258,0.482-0.602,0.924-1.035,1.325c-0.434,0.402-0.908,0.747-1.422,1.036c-0.707,0.386-1.471,0.683-2.289,0.892
			C115.486,47.159,114.5,47.264,113.341,47.264z M120.957,34.879h-6.602c-1.832,0-3.141,0.354-3.928,1.061s-1.182,1.687-1.182,2.939
			v0.674c0,1.286,0.449,2.217,1.35,2.796c0.898,0.578,1.977,0.867,3.229,0.867c1.156,0,2.16-0.137,3.012-0.41
			c0.852-0.272,1.631-0.682,2.338-1.229c0.643-0.481,1.1-1.036,1.373-1.662c0.273-0.627,0.41-1.438,0.41-2.434V34.879z"/>
		<path fill="#464646" d="M141.726,41.577l6.939-21.059h4.914l-13.686,37.25l-4.24-1.494l3.422-9.011l-9.59-26.745h5.061
			l6.986,21.059H141.726z"/>
	</g>
</g>
</svg>
